# xmcd
#
# Track frame offsets:
#	150
#	20952
#	33780
#	50189
#	72131
#	88825
#	105998
#	126792
#	139821
#	151205
#	167314
#	184070
#	202789
#	226282
#	240132
#	252200
#	269370
#	286010
#	303607
#	325214
#
# Disc length: 4577
#
# Revision: 1
# Processed by: cddbd v1.5.1PL0 Copyright (c) Steve Scherf et al.
# Submitted via: ExactAudioCopy v0.95a5
# Normalized: r0:TDELIM( - )
#
DISCID=0811df14
DTITLE=Various Artist - Send It Down Hughie
DYEAR=2002
DGENRE=Country
TTITLE0=GRANT RICHARDSON - Hughie
TTITLE1=KASEYCHAMBERS - This Flower
TTITLE2=JOHN WILLIAMSON - lt's A Way Of Life
TTITLE3=FELICITY - This ls Life
TTITLE4=ADAM BRAND - Good Friends
TTITLE5=GINA JEFFREYS - Out Of The Blues
TTITLE6=TROY CASSAR- DALEY - 40 Miles
TTITLE7=MELINDA SCHNEIDER - He Still Calls Her Angel
TTITLE8=SLIM DUSTY - A Hard, Hard Country
TTITLE9=BECCY COLE - Too Strong To Break
TTITLE10=GRAEME CONNORS - Let It Rain
TTITLE11=BRENDON WALMSLEY - Rose And Rodeo
TTITLE12=DARREN COGGAN - The Cowboy
TTITLE13=LYN BOWTELL - Sweet Summer Rain
TTITLE14=ADAM HARVEY - The Shake Of A Hand
TTITLE15=DALE JUNER - Tarcutter Boogie
TTITLE16=KAREN LYNNE - The Outback's Been Getting Rain
TTITLE17=LUKE O'SHEA AND MEDICINEWHEEL - Praying For Rain
TTITLE18=CROSBY SISTERS - Trouble In The Fields
TTITLE19=BUSHWACKERS - The Lachlan Tigers
EXTD=
EXTT0=
EXTT1=
EXTT2=
EXTT3=
EXTT4=
EXTT5=
EXTT6=
EXTT7=
EXTT8=
EXTT9=
EXTT10=
EXTT11=
EXTT12=
EXTT13=
EXTT14=
EXTT15=
EXTT16=
EXTT17=
EXTT18=
EXTT19=
PLAYORDER=
